<svg width="100" height="100" viewBox="0 0 100 100" fill="none" xmlns="http://www.w3.org/2000/svg">
<path fillRule="evenodd" clipRule="evenodd" d="M99.9762 51.556C99.992 51.0392 100 50.5205 100 50C100 22.3858 77.6142 0 50 0C23.7952 0 2.29873 20.159 0.172665 45.8149L27.4539 59.1524C28.6839 56.6906 31.2281 55.0001 34.1672 55.0001C36.7209 55.0001 38.9765 56.2764 40.3309 58.2259L61.7887 40.5232C61.7084 40.0833 61.6664 39.63 61.6664 39.1669C61.6664 35.0248 65.0243 31.6669 69.1664 31.6669C73.3085 31.6669 76.6664 35.0248 76.6664 39.1669C76.6664 39.3109 76.6623 39.454 76.6543 39.596L99.9762 51.556ZM41.3822 60.4452L62.6565 42.8939C63.95 45.1483 66.3809 46.6669 69.1664 46.6669C72.3079 46.6669 74.9984 44.7354 76.1149 41.9951L99.8297 54.1565C97.7172 79.8261 76.2145 100 50 100C22.3858 100 0 77.6142 0 50C0 49.4623 0.00848654 48.9266 0.025333 48.3931L26.7397 61.4534C26.6919 61.7954 26.6672 62.1449 26.6672 62.5001C26.6672 66.6422 30.0251 70.0001 34.1672 70.0001C38.3093 70.0001 41.6672 66.6422 41.6672 62.5001C41.6672 61.7875 41.5678 61.0982 41.3822 60.4452Z" fill="#109CF1"/>
</svg>
