<?xml version="1.0" encoding="utf-8"?>
<!-- Generator: Adobe Illustrator 19.2.1, SVG Export Plug-In . SVG Version: 6.00 Build 0)  -->
<svg version="1.1" id="layer" xmlns="http://www.w3.org/2000/svg" xmlns:xlink="http://www.w3.org/1999/xlink" x="0px" y="0px"
	 viewBox="0 0 652 652" style="enable-background:new 0 0 652 652;" xml:space="preserve">
<style type="text/css">
	.st0{fill:#00A14B;}
	.st1{fill:#FFFFFF;}
</style>
<path class="st0" d="M556.2,486.6c28.3,0,51.2-22.9,51.2-51.2V122.1c0-28.3-22.9-51.2-51.2-51.2H72.3c-28.3,0-51.2,22.9-51.2,51.2
	v313.3c0,28.3,23,51.2,51.2,51.2H556.2z"/>
<path class="st1" d="M422.8,446.7c-19.2,0-29.8-18.5-29.8-35.6c0-16.6,11.2-35.1,29.8-35.1c21,0,30.2,20.4,30.2,35.1
	C453,430.1,444.2,446.7,422.8,446.7 M205,446.7c-19.2,0-29.8-18.5-29.8-35.6c0-16.6,11.2-35.1,29.8-35.1c21,0,30.2,20.4,30.2,35.1
	C235.2,430.1,226.4,446.7,205,446.7 M314.3,244.3c5.5,13.9,13.5,22.1,13.5,39.1c0,22.1-8.4,22.6-5.7,33.8c2.8,5.7,8.2,5,12.5,2.8
	c28.5-17.1,47.7-56.2,87.5-47.7c-23.1,11.4-29.2,37-42.4,49.1c-14.5,11-44.8,4.3-50.5,11.4c-9.2,6.1-7.1,22.8-7.1,37h-15.7
	c0-14.2,2.1-31-7.1-37c-5.7-7.1-35.9-0.4-50.5-11.4c-13.2-12.1-19.2-37.7-42.3-49.1c39.8-8.6,59.1,30.6,87.5,47.7
	c4.1,2.1,9.6,2.8,12.4-2.8c2.1-11.5-5.7-11.7-5.7-33.8C300.7,266.3,308.6,258.2,314.3,244.3 M367.6,388v-18.1H342
	c0,0,0-17.1,3.6-21.4c5.5-6.7,20.9,1.7,33.5,4.3c76.8,7.1,112.4-76.8,71.2-128.1c17.1-51.2-22.1-108.2-82.6-102.4
	c-6.4-17.1-35.6-28.5-53.4-28.5c-17.8,0-47,11.4-53.4,28.5c-60.5-5.7-99.6,51.2-82.5,102.4c-41.3,51.3-5.7,135.2,71.2,128.1
	c12.6-2.2,30.4-10.7,33.4-4.3c3.5,4.3,3.5,21.4,3.5,21.4h-25.6v17.8h25.6v39.1c0,5.3-2.5,19.2-22.8,19.2c-7.8,0-26.2-1.4-18.5-5.9
	c6-6.8,10.3-15.5,10.3-29c-0.4-31-24.5-41.3-50.5-41.3c-24.2,0-49.8,10.3-50.2,41.3c0,6.2,0.9,16.8,6,22.8c-7,14-27.8,13-28.1,13
	c-18.3-0.7-29.2-17.6-29.2-35.7c0-14.9,7.7-35.9,28.3-36.1c13.8-0.1,17,4.9,21.1,10.8c3.3-4.3,5-7.1,8.2-10.3
	c-3.9-2.2-16.1-5.4-29.8-5.4c-26.3,0-48.4,10.9-48.4,41c0,53.7,65.8,44.1,87.1,33.4c6.4,7.1,19,8.1,27.9,8.1
	c32.7,0,42.6,0.1,75.3,0.1c15.3,0,33.1-14.6,33.1-28.8v-36.3h15.7v35.9c0,14.6,20.6,29.2,35.2,29.2h78.3c21,0,38.8-19.3,38.8-40.2
	c-0.9-10.2,0-15.8,2.8-22.8c5.3-18,41.7-22.1,44.1,11.4v51.6h19.9V404c0-33.4-32.7-34.2-44.8-34.2c-19.2,0-27.5,7.2-32.5,15.4
	c-4.7-6.4-11.4-15.2-41.1-15.4c-35.2,0-50.9,18.9-50.9,38.4c0,17.8,7.5,26.3,10.3,29.9c3.6,3.6-7.5,7.5-16.4,7.5
	c-11.7,0-20.3-2.1-23.8-18.5v-39.5L367.6,388z"/>



</svg>
